# xmcd
#
# Track frame offsets: 
#        151
#        17568
#        34602
#        51432
#        72505
#        99117
#        115307
#        142718
#        166961
#        183928
#        210844
#
# Disc length: 3256 seconds
#
# Revision: 0
# Processed by: cddbd v1.5.2PL0 Copyright (c) Steve Scherf et al.
# Submitted via: ExactAudioCopyFreeDBPlugin 1.0
#
DISCID=860cb60b
DTITLE=Bullfrog Rata and the Undergators - All I Need
DYEAR=2003
DGENRE=New Zealand: Country/Blues
TTITLE0=Is U or Is U Ain't My Baby
TTITLE1=Big Boss Man
TTITLE2=Little Red Hen
TTITLE3=No Money Down
TTITLE4=Eyesite to the Blind
TTITLE5=Checkin on My Baby
TTITLE6=T Bone Shuffle
TTITLE7=All I Need
TTITLE8=The Hunt
TTITLE9=Little Wing
TTITLE10=Icecream Man
EXTD=
EXTT0=
EXTT1=
EXTT2=
EXTT3=
EXTT4=
EXTT5=
EXTT6=
EXTT7=
EXTT8=
EXTT9=
EXTT10=
PLAYORDER=
